<?xml version="1.0" encoding="UTF-8"?>
<svg id="Layer_2" data-name="Layer 2" xmlns="http://www.w3.org/2000/svg" viewBox="0 0 676.14 339.11">
  <defs>
    <style>
      .cls-1 {
        font-family: PoiretOne-Regular, 'Poiret One';
        font-size: 199.45px;
      }

      .cls-2, .cls-3 {
        fill: none;
        stroke: #000;
        stroke-miterlimit: 10;
        stroke-width: 5px;
      }

      .cls-3 {
        stroke-linecap: round;
      }
    </style>
  </defs>
  <g id="Layer_1-2" data-name="Layer 1">
    <g>
      <path class="cls-3" d="M287.86,154.22c-10.51,7.05-15.55,15.1-13.49,19.79,1.15,2.62,4.42,4,7.06,4.31,7.03.83,13.24-6.18,25.38-20.22,19.51-22.57,23.88-28.02,32.72-30.48,6.77-1.89,12.39-.97,17.44-.14,23.51,3.85,34.66,21.79,41.72,17.67,2.75-1.6,3.93-5.99,3.43-9.32-2.74-18.13-57.99-20.94-57.75-29.32.2-7.06,39.36-5.14,44.52-21.34,3.02-9.49-6.98-21.06-16.9-32.85-5.26-6.25-14.05-15.17-27.11-22.18-13.31-7.14-34.47-14.14-38.36-8.41-3.87,5.71,7.74,21.98,19.26,31.4,10.7,8.75,21.99,12.15,29,13.63"/>
      <path class="cls-2" d="M330.45,23.21c-3.38-9.49-3.66-17.68-.14-20.02,5.07-3.37,16.43,6.47,19.32,8.97,6.29,5.45,17.22,17.21,22.36,40.14"/>
    </g>
    <text class="cls-1" transform="translate(0 297.63)"><tspan x="0" y="0">uxscape</tspan></text>
  </g>
</svg>